<svg width="188" height="24" viewBox="0 0 188 24" fill="none" xmlns="http://www.w3.org/2000/svg">
<path d="M77.1179 7.44948H65.0433V10.1621L65.4073 10.1291V10.0958C65.4733 9.69884 66.2011 8.93806 67.0943 8.93806H69.7739V22.9315H72.4205V8.97103H75.1661C76.0925 8.97103 76.6879 9.46722 76.7871 9.93045V9.99667H77.1841L77.1512 7.5157H77.1179V7.44919V7.44948ZM16.7758 7.44948V7.81324L16.809 7.84649C17.0404 7.97864 17.272 8.54105 17.272 9.23589V22.9315H19.8524V15.8851H21.0102C22.0358 15.9513 22.4328 16.6129 22.929 17.4731L22.9952 17.5723L23.326 18.1014C23.8885 19.0279 24.6492 20.2849 25.41 21.4759C25.9724 22.3029 26.6673 22.7991 27.5605 22.9315C28.1888 23.0307 29.446 22.9974 29.9422 22.865L30.5047 22.7329L30.7363 22.6667L29.9422 22.4353C29.6114 22.3359 29.1153 22.1042 28.4537 21.3435C28.0234 20.8802 27.3618 19.7887 26.3365 18.2009L25.3438 16.6129L25.3108 16.5799C25.0462 16.1829 24.583 15.5543 23.8222 15.1572C25.2779 14.6943 26.7002 13.3708 26.7002 11.3861C26.7002 10.8237 26.5681 9.76505 25.6086 8.83859C24.6492 7.91242 23.1277 7.44948 21.0764 7.44948H16.7758ZM21.2748 8.83888C23.9214 8.93806 23.9876 11.1874 23.9876 11.419C23.9876 13.6687 22.3337 14.4627 20.878 14.4627C20.878 14.4627 19.9516 14.4294 19.8524 14.4294V8.83888C20.1502 8.83888 20.6461 8.80563 21.2748 8.83888ZM43.3074 7.44948H43.2411L43.2741 7.84649H43.3074C43.539 7.94568 43.7373 8.50809 43.7373 8.97132V22.8983H48.1701C51.0813 22.8983 53.5294 22.0051 55.1833 20.2849C56.573 18.8622 57.3338 16.9104 57.3338 14.9256C57.3338 13.7349 56.9368 11.9155 55.779 10.4266C54.2572 8.44187 51.8421 7.41652 48.5671 7.41652L43.3074 7.44948ZM46.384 8.93806H47.7734C48.1372 8.93806 49.0633 8.97103 49.7252 9.0705C54.0918 9.73209 54.555 13.4041 54.555 14.9259C54.555 16.1829 54.3234 18.0026 53.2318 19.3917C52.1732 20.7481 50.5189 21.4427 48.2696 21.4427C47.7401 21.4427 47.0785 21.4427 46.3507 21.4097C46.384 21.3105 46.384 9.0705 46.384 8.93835V8.93806ZM62.6927 7.44948H59.6491V7.81324L59.6823 7.84649C59.9469 7.97864 60.1453 8.47483 60.1453 9.13642V22.9315H62.7257V7.48245L62.6927 7.44948ZM39.967 7.44948H31.2666L31.2998 7.81324H31.3328C31.5644 7.94568 31.829 8.47483 31.829 9.20264V22.8983H40.4962L41.1248 20.1527L40.761 20.0203L40.6616 20.1857C39.9338 21.3105 39.2063 21.4427 36.692 21.4427C35.7988 21.4759 34.9056 21.3764 34.3762 21.3435V15.0251H38.776V13.6357H34.3762V8.83859C34.5086 8.83859 37.949 8.87185 37.949 8.87185C38.743 8.87185 39.6362 9.63262 39.7024 10.0958V10.1621H40.0662L39.967 7.44948ZM112.512 7.44948H109.468L109.501 7.81324H109.535C109.799 7.94568 109.998 8.47483 109.998 9.13642V22.9315H112.578V7.48245L112.512 7.44948ZM148.638 7.44948H139.97L140.004 7.84649H140.037C140.268 7.97864 140.533 8.47483 140.533 9.20264V22.8983H149.2L149.829 20.1527L149.432 20.0203L149.333 20.1857C148.605 21.3105 147.877 21.4427 145.396 21.4427C144.503 21.4759 143.61 21.3767 143.08 21.3435V15.0251H147.48V13.6357H143.08V8.83859C143.213 8.83859 146.653 8.87185 146.653 8.87185C147.646 8.87185 148.373 9.59965 148.373 10.0958V10.1624L148.77 10.1291L148.704 7.41623L148.638 7.44948ZM116.714 11.3528C116.681 13.5033 117.971 14.5616 120.088 15.6202L120.882 16.0172C122.536 16.8442 123.628 17.3736 123.628 18.9284C123.628 19.193 123.562 20.1195 122.867 20.8473C122.371 21.3435 121.676 21.5751 120.816 21.5751C118.335 21.5418 117.442 19.6233 117.111 18.4985L117.045 18.2998L116.516 18.3993L116.648 21.641L116.78 21.7075C117.607 22.1702 118.996 22.9645 120.948 22.9974C122.371 22.9974 123.793 22.435 124.753 21.4756C125.613 20.6157 126.076 19.5571 126.076 18.366C126.076 15.6534 124.19 14.694 122.205 13.6354L121.842 13.4371C119.691 12.3785 118.964 11.8823 118.964 10.6912C118.964 9.86423 119.592 8.60727 121.312 8.64023C123.396 8.67319 124.29 10.1621 124.488 10.9558L124.554 11.1874L125.084 11.1212L124.885 8.27647L124.786 8.20997C123.595 7.41623 122.106 7.31705 121.511 7.31705C119.195 7.2838 116.747 8.70645 116.714 11.3528ZM82.7079 11.3522C82.6746 13.5027 83.9648 14.5613 86.0821 15.6202L86.8761 16.0169C88.5301 16.8439 89.6216 17.3731 89.6216 18.9281C89.6216 19.1927 89.5557 20.1189 88.8608 20.8467C88.3647 21.3429 87.6701 21.5745 86.8099 21.5745C84.3289 21.5415 83.4357 19.6227 83.1049 18.4979L83.0387 18.2995L82.5092 18.3987L82.6417 21.6407L82.7738 21.7069C83.6011 22.1702 84.9905 22.9639 86.9423 22.9972C88.3647 22.9972 89.787 22.4347 90.7464 21.4753C91.6067 20.6151 92.0696 19.5565 92.0696 18.3657C92.0696 15.6532 90.184 14.6934 88.1993 13.6351L87.8355 13.4365C85.685 12.3782 84.9572 11.8817 84.9572 10.6909C84.9572 9.86394 85.5859 8.60669 87.3061 8.63994C89.3903 8.67291 90.2835 10.1615 90.4819 10.9555L90.5481 11.1868L91.0772 11.1209L90.9118 8.30915L90.8127 8.24264C89.6216 7.4489 88.133 7.34972 87.5377 7.34972C85.2221 7.28351 82.7408 8.70587 82.7079 11.3525V11.3522ZM128.327 11.3522C128.294 13.5027 129.584 14.5613 131.701 15.6199L132.495 16.0169C134.149 16.8439 135.241 17.3731 135.241 18.9279C135.241 19.1927 135.175 20.1189 134.48 20.8467C133.984 21.3429 133.289 21.5745 132.429 21.5745C129.948 21.5413 129.055 19.6227 128.724 18.4979L128.658 18.2995L128.128 18.3987L128.261 21.6407L128.393 21.7067C129.22 22.1699 130.609 22.9639 132.561 22.9969C133.984 22.9969 135.406 22.4345 136.366 21.4753C137.226 20.6151 137.689 19.5565 137.689 18.3654C137.689 15.6532 135.803 14.6934 133.818 13.6348L133.454 13.4365C131.304 12.3779 130.576 11.8817 130.576 10.6906C130.576 10.1615 130.808 9.63233 131.205 9.23503C131.635 8.8383 132.23 8.60669 132.925 8.60669C135.009 8.63965 135.902 10.1282 136.101 10.9223L136.167 11.1206L136.696 11.0547L136.531 8.24264L136.432 8.17642C135.241 7.38269 133.752 7.28351 133.157 7.28351C130.841 7.28351 128.36 8.70587 128.327 11.3522ZM106.06 7.44948H104.009L104.042 7.81324H104.075C104.175 7.87975 104.506 8.11107 104.506 9.0705V17.8369C104.506 19.5241 103.877 21.5751 100.9 21.5751C98.0878 21.5751 97.4925 19.8881 97.4925 17.3736V7.41681H94.2504L94.2834 7.7476H94.3167C94.515 7.84678 94.8791 8.27676 94.8791 9.10375V17.3407C94.8791 22.4683 98.2532 23.0307 100.8 23.0307C102.058 23.0307 106.093 22.6669 106.093 17.8369V7.38327L106.06 7.44948ZM2.65017 9.66529C1.29402 11.1539 0.5 13.1386 0.5 15.1893C0.5 17.472 1.39321 19.5232 3.01422 21.0118C4.56902 22.4345 6.62001 23.1949 8.83639 23.1949C9.99447 23.1949 12.2768 22.9966 14.4605 21.6404L14.5594 21.5739L14.8243 18.3652L14.394 18.3322L14.3281 18.4646C12.707 21.9383 10.1925 21.4421 9.23341 21.4421C4.96603 21.4421 3.51041 18.2995 3.51041 14.8921C3.51041 11.6168 4.96603 8.80505 9.26666 8.80505C10.5898 8.80505 12.9716 8.77209 14.2286 11.7492L14.2951 11.9146L14.6918 11.7825L14.4272 8.44129L14.3281 8.40804C12.3097 7.51483 10.689 7.11782 9.0683 7.11782C6.45461 7.08486 4.23822 7.97806 2.65017 9.66529ZM180 17.9025C177.122 17.4396 174.012 17.1747 171.73 17.5717C171.598 17.6047 171.498 17.5055 171.498 17.3733C171.498 16.5793 171.498 13.9989 170.87 10.7901C170.87 10.7239 170.837 10.6909 170.771 10.6577C163.261 5.39792 156.479 1.89131 153.701 0.568127C153.502 0.468657 153.304 0.733525 153.469 0.898923C161.574 8.34182 164.419 21.0121 164.783 22.6993C164.8 22.7473 164.831 22.7889 164.873 22.8184C164.914 22.848 164.963 22.8642 165.014 22.8647C174.112 21.1113 183.242 23.2947 185.789 23.9895C185.988 24.0558 186.12 23.7909 185.988 23.6587C184.102 21.6407 182.117 19.7551 180.099 17.9687C180.099 17.9358 180.066 17.9025 180 17.9025Z" fill="#183964"/>
<path d="M187.643 19.193C180.332 9.40042 169.944 2.18885 166.669 0.0389698C166.471 -0.0934641 166.272 0.138151 166.405 0.336801C168.919 3.64476 170.209 7.44919 170.838 10.625C170.838 10.6909 170.871 10.7242 170.904 10.7571C174.06 12.9802 177.107 15.3538 180.034 17.8698C180.067 17.9031 180.101 17.9031 180.134 17.9031C183.309 18.4322 186.221 19.16 187.411 19.4908C187.61 19.5571 187.742 19.3587 187.643 19.193ZM77.1179 7.44948H65.0433V10.1621L65.4073 10.1291V10.0958C65.4733 9.69884 66.2011 8.93806 67.0943 8.93806H69.7739V22.9315H72.4205V8.97103H75.1661C76.0925 8.97103 76.6879 9.46722 76.7871 9.93045V9.99667H77.1841L77.1512 7.5157H77.1179V7.44919V7.44948ZM16.7758 7.44948V7.81324L16.809 7.84649C17.0404 7.97864 17.272 8.54105 17.272 9.23589V22.9315H19.8524V15.8851H21.0102C22.0358 15.9513 22.4328 16.6129 22.929 17.4731L22.9952 17.5723L23.326 18.1014C23.8885 19.0279 24.6492 20.2849 25.41 21.4759C25.9724 22.3029 26.6673 22.7991 27.5605 22.9315C28.1888 23.0307 29.446 22.9974 29.9422 22.865L30.5047 22.7329L30.7363 22.6667L29.9422 22.4353C29.6114 22.3359 29.1153 22.1042 28.4537 21.3435C28.0234 20.8802 27.3618 19.7887 26.3365 18.2009L25.3438 16.6129L25.3108 16.5799C25.0462 16.1829 24.583 15.5543 23.8222 15.1572C25.2779 14.6943 26.7002 13.3708 26.7002 11.3861C26.7002 10.8237 26.5681 9.76505 25.6086 8.83859C24.6492 7.91242 23.1277 7.44948 21.0764 7.44948H16.7758ZM21.2748 8.83888C23.9214 8.93806 23.9876 11.1874 23.9876 11.419C23.9876 13.6687 22.3337 14.4627 20.878 14.4627C20.878 14.4627 19.9516 14.4294 19.8524 14.4294V8.83888C20.1502 8.83888 20.6461 8.80563 21.2748 8.83888ZM43.3074 7.44948H43.2411L43.2741 7.84649H43.3074C43.539 7.94568 43.7373 8.50809 43.7373 8.97132V22.8983H48.1701C51.0813 22.8983 53.5294 22.0051 55.1833 20.2849C56.573 18.8622 57.3338 16.9104 57.3338 14.9256C57.3338 13.7349 56.9368 11.9155 55.779 10.4266C54.2572 8.44187 51.8421 7.41652 48.5671 7.41652L43.3074 7.44948ZM46.384 8.93806H47.7734C48.1372 8.93806 49.0633 8.97103 49.7252 9.0705C54.0918 9.73209 54.555 13.4041 54.555 14.9259C54.555 16.1829 54.3234 18.0026 53.2318 19.3917C52.1732 20.7481 50.5189 21.4427 48.2696 21.4427C47.7401 21.4427 47.0785 21.4427 46.3507 21.4097C46.384 21.3105 46.384 9.0705 46.384 8.93835V8.93806ZM62.6927 7.44948H59.6491V7.81324L59.6823 7.84649C59.9469 7.97864 60.1453 8.47483 60.1453 9.13642V22.9315H62.7257V7.48245L62.6927 7.44948ZM39.967 7.44948H31.2666L31.2998 7.81324H31.3328C31.5644 7.94568 31.829 8.47483 31.829 9.20264V22.8983H40.4962L41.1248 20.1527L40.761 20.0203L40.6616 20.1857C39.9338 21.3105 39.2063 21.4427 36.692 21.4427C35.7988 21.4759 34.9056 21.3764 34.3762 21.3435V15.0251H38.776V13.6357H34.3762V8.83859C34.5086 8.83859 37.949 8.87185 37.949 8.87185C38.743 8.87185 39.6362 9.63262 39.7024 10.0958V10.1621H40.0662L39.967 7.44948ZM112.512 7.44948H109.468L109.501 7.81324H109.535C109.799 7.94568 109.998 8.47483 109.998 9.13642V22.9315H112.578V7.48245L112.512 7.44948ZM148.638 7.44948H139.97L140.004 7.84649H140.037C140.268 7.97864 140.533 8.47483 140.533 9.20264V22.8983H149.2L149.829 20.1527L149.432 20.0203L149.333 20.1857C148.605 21.3105 147.877 21.4427 145.396 21.4427C144.503 21.4759 143.61 21.3767 143.08 21.3435V15.0251H147.48V13.6357H143.08V8.83859C143.213 8.83859 146.653 8.87185 146.653 8.87185C147.646 8.87185 148.373 9.59965 148.373 10.0958V10.1624L148.77 10.1291L148.704 7.41623L148.638 7.44948ZM116.714 11.3528C116.681 13.5033 117.971 14.5616 120.088 15.6202L120.882 16.0172C122.536 16.8442 123.628 17.3736 123.628 18.9284C123.628 19.193 123.562 20.1195 122.867 20.8473C122.371 21.3435 121.676 21.5751 120.816 21.5751C118.335 21.5418 117.442 19.6233 117.111 18.4985L117.045 18.2998L116.516 18.3993L116.648 21.641L116.78 21.7075C117.607 22.1702 118.996 22.9645 120.948 22.9974C122.371 22.9974 123.793 22.435 124.753 21.4756C125.613 20.6157 126.076 19.5571 126.076 18.366C126.076 15.6534 124.19 14.694 122.205 13.6354L121.842 13.4371C119.691 12.3785 118.964 11.8823 118.964 10.6912C118.964 9.86423 119.592 8.60727 121.312 8.64023C123.396 8.67319 124.29 10.1621 124.488 10.9558L124.554 11.1874L125.084 11.1212L124.885 8.27647L124.786 8.20997C123.595 7.41623 122.106 7.31705 121.511 7.31705C119.195 7.2838 116.747 8.70645 116.714 11.3528ZM82.7079 11.3522C82.6746 13.5027 83.9648 14.5613 86.0821 15.6202L86.8761 16.0169C88.5301 16.8439 89.6216 17.3731 89.6216 18.9281C89.6216 19.1927 89.5557 20.1189 88.8608 20.8467C88.3647 21.3429 87.6701 21.5745 86.8099 21.5745C84.3289 21.5415 83.4357 19.6227 83.1049 18.4979L83.0387 18.2995L82.5092 18.3987L82.6417 21.6407L82.7738 21.7069C83.6011 22.1702 84.9905 22.9639 86.9423 22.9972C88.3647 22.9972 89.787 22.4347 90.7464 21.4753C91.6067 20.6151 92.0696 19.5565 92.0696 18.3657C92.0696 15.6532 90.184 14.6934 88.1993 13.6351L87.8355 13.4365C85.685 12.3782 84.9572 11.8817 84.9572 10.6909C84.9572 9.86394 85.5859 8.60669 87.3061 8.63994C89.3903 8.67291 90.2835 10.1615 90.4819 10.9555L90.5481 11.1868L91.0772 11.1209L90.9118 8.30915L90.8127 8.24264C89.6216 7.4489 88.133 7.34972 87.5377 7.34972C85.2221 7.28351 82.7408 8.70587 82.7079 11.3525V11.3522ZM128.327 11.3522C128.294 13.5027 129.584 14.5613 131.701 15.6199L132.495 16.0169C134.149 16.8439 135.241 17.3731 135.241 18.9279C135.241 19.1927 135.175 20.1189 134.48 20.8467C133.984 21.3429 133.289 21.5745 132.429 21.5745C129.948 21.5413 129.055 19.6227 128.724 18.4979L128.658 18.2995L128.128 18.3987L128.261 21.6407L128.393 21.7067C129.22 22.1699 130.609 22.9639 132.561 22.9969C133.984 22.9969 135.406 22.4345 136.366 21.4753C137.226 20.6151 137.689 19.5565 137.689 18.3654C137.689 15.6532 135.803 14.6934 133.818 13.6348L133.454 13.4365C131.304 12.3779 130.576 11.8817 130.576 10.6906C130.576 10.1615 130.808 9.63233 131.205 9.23503C131.635 8.8383 132.23 8.60669 132.925 8.60669C135.009 8.63965 135.902 10.1282 136.101 10.9223L136.167 11.1206L136.696 11.0547L136.531 8.24264L136.432 8.17642C135.241 7.38269 133.752 7.28351 133.157 7.28351C130.841 7.28351 128.36 8.70587 128.327 11.3522ZM106.06 7.44948H104.009L104.042 7.81324H104.075C104.175 7.87975 104.506 8.11107 104.506 9.0705V17.8369C104.506 19.5241 103.877 21.5751 100.9 21.5751C98.0878 21.5751 97.4925 19.8881 97.4925 17.3736V7.41681H94.2504L94.2834 7.7476H94.3167C94.515 7.84678 94.8791 8.27676 94.8791 9.10375V17.3407C94.8791 22.4683 98.2532 23.0307 100.8 23.0307C102.058 23.0307 106.093 22.6669 106.093 17.8369V7.38327L106.06 7.44948ZM2.65017 9.66529C1.29402 11.1539 0.5 13.1386 0.5 15.1893C0.5 17.472 1.39321 19.5232 3.01422 21.0118C4.56902 22.4345 6.62001 23.1949 8.83639 23.1949C9.99447 23.1949 12.2768 22.9966 14.4605 21.6404L14.5594 21.5739L14.8243 18.3652L14.394 18.3322L14.3281 18.4646C12.707 21.9383 10.1925 21.4421 9.23341 21.4421C4.96603 21.4421 3.51041 18.2995 3.51041 14.8921C3.51041 11.6168 4.96603 8.80505 9.26666 8.80505C10.5898 8.80505 12.9716 8.77209 14.2286 11.7492L14.2951 11.9146L14.6918 11.7825L14.4272 8.44129L14.3281 8.40804C12.3097 7.51483 10.689 7.11782 9.0683 7.11782C6.45461 7.08486 4.23822 7.97806 2.65017 9.66529Z" fill="#183964"/>
<path d="M180 17.9025C177.122 17.4396 174.012 17.1747 171.73 17.5717C171.598 17.6047 171.498 17.5055 171.498 17.3733C171.498 16.5793 171.498 13.9989 170.87 10.7901C170.87 10.7239 170.837 10.6909 170.771 10.6577C163.261 5.39792 156.479 1.89131 153.701 0.568127C153.502 0.468657 153.304 0.733525 153.469 0.898923C161.574 8.34182 164.419 21.0121 164.783 22.6993C164.8 22.7473 164.831 22.7889 164.873 22.8184C164.914 22.848 164.963 22.8642 165.014 22.8647C174.112 21.1113 183.242 23.2947 185.789 23.9895C185.988 24.0558 186.12 23.7909 185.988 23.6587C184.102 21.6407 182.117 19.7551 180.099 17.9687C180.099 17.9358 180.066 17.9025 180 17.9025Z" fill="#183964"/>
<path d="M187.643 19.193C180.332 9.40042 169.944 2.18885 166.669 0.0389698C166.471 -0.0934641 166.272 0.138151 166.405 0.336801C168.919 3.64476 170.209 7.44919 170.838 10.625C170.838 10.6909 170.871 10.7242 170.904 10.7571C174.06 12.9802 177.107 15.3538 180.034 17.8698C180.067 17.9031 180.101 17.9031 180.134 17.9031C183.309 18.4322 186.221 19.16 187.411 19.4908C187.61 19.5571 187.742 19.3587 187.643 19.193Z" fill="#183964"/>
</svg>
