<svg width="117" height="25" viewBox="0 0 117 25" fill="none" xmlns="http://www.w3.org/2000/svg">
<g clip-path="url(#clip0_114_1681)">
<path d="M7.40772 12.4584C7.40702 13.1426 7.55973 13.8182 7.85463 14.4355C8.14952 15.0528 8.57909 15.5962 9.11172 16.0255V16.0255C9.8705 16.1804 10.6425 16.2615 11.4169 16.2677V16.2677C11.5129 16.2687 11.61 16.2687 11.7083 16.2677H11.7397C12.9343 16.2473 14.1191 16.0485 15.255 15.678C16.1022 14.8213 16.5766 13.6647 16.575 12.4599C16.575 9.92785 14.5225 7.87585 11.991 7.87585C9.45948 7.87585 7.40772 9.92641 7.40772 12.4584ZM15.6157 12.4584C15.6157 13.2968 15.325 14.1093 14.7931 14.7574C14.2612 15.4055 13.521 15.8491 12.6987 16.0127C11.8764 16.1763 11.0228 16.0496 10.2834 15.6544C9.54394 15.2592 8.96443 14.6198 8.64358 13.8452C8.32273 13.0706 8.28038 12.2087 8.52376 11.4064C8.76713 10.604 9.28117 9.91092 9.97828 9.44511C10.6754 8.9793 11.5125 8.76961 12.3469 8.85177C13.1812 8.93393 13.9613 9.30286 14.5542 9.89569C14.8919 10.2314 15.1597 10.6308 15.342 11.0707C15.5242 11.5106 15.6175 11.9822 15.6162 12.4584H15.6157Z" fill="#0F9E6D"/>
<path d="M9.16797 12.4582C9.16792 13.0187 9.3341 13.5666 9.64547 14.0326C9.95685 14.4986 10.3994 14.8618 10.9173 15.0763C11.4351 15.2907 12.0049 15.3468 12.5546 15.2374C13.1043 15.1279 13.6091 14.858 14.0054 14.4616C14.4016 14.0652 14.6714 13.5602 14.7806 13.0104C14.8897 12.4607 14.8334 11.8909 14.6188 11.3732C14.4041 10.8555 14.0407 10.413 13.5746 10.1018C13.1084 9.79066 12.5604 9.62472 12 9.625C11.2488 9.62532 10.5284 9.92396 9.99737 10.4552C9.4663 10.9865 9.16797 11.707 9.16797 12.4582V12.4582Z" fill="#0F9E6D"/>
<path d="M23.9987 12.2736C23.9812 11.0778 23.7851 9.89136 23.4169 8.75354C21.8764 13.5007 17.4532 16.9654 12.1849 17.0463C12.1233 17.0472 12.0619 17.0477 12.0006 17.0477H11.9965C11.0316 17.0469 10.0759 17.2351 9.18325 17.6016V17.6016C8.95079 17.6965 8.72337 17.8033 8.50189 17.9215C8.13993 18.1155 7.79474 18.3392 7.46989 18.5904C7.41565 18.6322 7.36213 18.6747 7.30933 18.7181C7.14853 18.8493 6.99357 18.9871 6.84445 19.1314C6.80109 19.1736 6.75821 19.2162 6.71581 19.2591C6.58477 19.392 6.45885 19.5298 6.33805 19.6723C6.30221 19.7146 6.26701 19.7572 6.23245 19.8003C6.13997 19.9145 6.05093 20.0315 5.96533 20.1514C6.16869 20.2616 6.37525 20.3656 6.58501 20.4634C7.04115 20.676 7.51052 20.8591 7.99021 21.0113C8.07748 21.0514 8.16975 21.0796 8.26453 21.0951C8.47753 21.1298 8.69605 21.1002 8.8921 21.01C9.08815 20.9198 9.25279 20.7731 9.36493 20.5887V20.5887C9.39693 20.5063 9.43309 20.4263 9.47341 20.3487C9.53182 20.2336 9.59822 20.1228 9.67213 20.017C9.72109 19.9459 9.77333 19.8775 9.82885 19.8115C9.93336 19.6867 10.0484 19.5711 10.1728 19.4659C10.2682 19.385 10.369 19.3106 10.4745 19.2432C10.4745 19.2365 10.4761 19.2295 10.4771 19.2228C10.4819 19.1902 10.4869 19.1575 10.4922 19.1251C10.4946 19.1088 10.4975 19.0925 10.5001 19.0771C10.5097 19.0291 10.52 18.9811 10.5309 18.9331C10.5738 18.7435 10.6213 18.5585 10.6583 18.3715C10.6978 18.1858 10.7192 17.9967 10.7221 17.8068C10.7228 17.7119 10.7147 17.6171 10.6981 17.5236C10.6799 17.429 10.6501 17.3369 10.6093 17.2495C10.6587 17.333 10.6976 17.4223 10.7253 17.5152C10.7526 17.6093 10.7713 17.7057 10.7812 17.8032C10.7984 17.9979 10.7966 18.1938 10.7759 18.3881C10.7584 18.582 10.7298 18.774 10.707 18.9641C10.7008 19.0159 10.6955 19.0671 10.6909 19.1182C11.0944 18.9076 11.5428 18.7977 11.998 18.798H12.0035C12.9074 18.7984 13.8037 18.6331 14.6481 18.3103C14.5783 18.4928 14.4898 18.6675 14.3841 18.8316C14.3449 18.8926 14.3034 18.9519 14.2597 19.0095C13.8176 19.5943 13.1661 19.9853 12.442 20.1003L12.4281 20.1223C12.3744 20.207 12.3255 20.2946 12.2817 20.3847C12.9777 20.3592 13.6667 20.2354 14.3281 20.017C14.5417 19.9464 14.7508 19.8664 14.9553 19.777C14.9274 19.6731 14.9059 19.5676 14.8907 19.4611C14.851 19.1533 14.8456 18.8421 14.8746 18.5331C14.8871 18.3785 14.9121 18.2271 14.9349 18.0771C14.9577 17.9271 14.9797 17.7775 14.9915 17.6273C15.0049 17.4772 15.0023 17.3261 14.9836 17.1766C14.9642 17.0262 14.9181 16.8805 14.8475 16.7463C14.928 16.8768 14.9844 17.0208 15.0141 17.1713C15.0436 17.3223 15.0568 17.4761 15.0534 17.6299C15.0513 17.9371 15.0037 18.2412 14.9987 18.5398C14.9895 18.8383 15.0136 19.1368 15.0707 19.4299C15.0892 19.5191 15.1126 19.6073 15.1405 19.6939C15.3409 19.6002 15.5362 19.4979 15.7266 19.387C15.8706 19.3035 16.0109 19.2155 16.1473 19.123L16.2138 19.0776C16.3351 18.9704 16.4911 18.9109 16.6529 18.9101C16.8147 18.9092 16.9713 18.9672 17.0937 19.0731C17.1105 19.0871 17.1266 19.102 17.1417 19.1179C17.1465 19.1227 17.151 19.1278 17.1553 19.1328C17.0155 19.2682 16.8705 19.3979 16.7202 19.5219C16.6562 19.5755 16.5905 19.6279 16.5229 19.6791C16.3906 19.7811 16.2546 19.8787 16.1149 19.9716C15.6659 20.2717 15.1854 20.5217 14.6819 20.7171C14.7077 20.7919 14.73 20.8683 14.7489 20.946C15.2854 20.732 15.7949 20.4555 16.2669 20.1223C16.4269 20.0103 16.5817 19.8919 16.7315 19.7669L16.7728 19.7321C16.7929 19.7127 16.8142 19.6946 16.8366 19.6779V19.6779C16.8441 19.6721 16.852 19.6666 16.8606 19.6613C16.9778 19.5813 17.1175 19.5407 17.2593 19.5453C17.4011 19.55 17.5378 19.5997 17.6495 19.6872C17.5473 19.8082 17.4401 19.9264 17.3281 20.0419C17.3068 20.064 17.2854 20.0861 17.2636 20.1077C17.2545 20.1173 17.2449 20.1267 17.2355 20.136C17.067 20.304 16.891 20.464 16.7075 20.616C16.6275 20.6821 16.5457 20.7461 16.4622 20.808C15.9605 21.1863 15.4128 21.4993 14.8321 21.7395C14.8288 21.8287 14.8213 21.9167 14.8096 22.0035C15.5521 21.6992 16.2403 21.2763 16.8472 20.7514C16.9619 20.6525 17.0734 20.55 17.1817 20.4439C17.2317 20.3959 17.2808 20.3467 17.3291 20.2963C17.3641 20.2603 17.3988 20.2239 17.433 20.1869L17.4357 20.184C17.4413 20.1783 17.4465 20.1725 17.4515 20.1667C17.4526 20.1658 17.4535 20.1648 17.4544 20.1636C17.4675 20.1506 17.4814 20.1384 17.4961 20.1271C17.545 20.0903 17.6015 20.0647 17.6615 20.0522C17.7214 20.0398 17.7834 20.0408 17.8429 20.0551C17.8601 20.0592 17.8769 20.0644 17.8933 20.0707C17.9586 20.0959 18.0164 20.1372 18.0613 20.1907C18.0671 20.1989 18.0731 20.2071 18.0786 20.2147C18.0396 20.2707 17.9996 20.326 17.9586 20.3806C17.8415 20.5385 17.7182 20.6915 17.5888 20.8397C17.5787 20.8517 17.5684 20.8637 17.5578 20.8755C16.7316 21.8111 15.6829 22.5234 14.5086 22.9467C14.4499 23.059 14.3835 23.167 14.3099 23.2702C15.5867 22.8508 16.7258 22.0925 17.6053 21.0763C17.6644 21.0082 17.7221 20.9391 17.7784 20.869C17.7837 20.8627 17.7887 20.8565 17.7937 20.85C17.8041 20.8347 17.8156 20.8202 17.8281 20.8066C17.8978 20.7297 17.9941 20.682 18.0976 20.6731C18.1096 20.6719 18.1216 20.6715 18.1338 20.6715C18.2359 20.6713 18.3344 20.709 18.4103 20.7773C18.2733 21.0131 18.1231 21.2411 17.9605 21.4601C17.8618 21.5935 17.7587 21.7234 17.6512 21.8496C17.4128 22.1301 17.1539 22.3925 16.8767 22.6347C16.9177 22.7263 16.9547 22.8195 16.9866 22.9145C17.0255 23.0275 17.0555 23.1434 17.0764 23.2611C17.0427 23.1473 17.0001 23.0364 16.9489 22.9294C16.9098 22.8454 16.8664 22.7635 16.8198 22.6839C15.5953 23.7342 14.0604 24.3544 12.4499 24.4495C12.9361 24.4318 13.4207 24.3846 13.9012 24.3082C15.7638 24.0111 17.5296 23.2773 19.0542 22.1669C19.2897 21.9952 19.5186 21.8155 19.7409 21.6276C22.3933 19.3855 24.0563 16.0169 23.9987 12.2736ZM23.7467 12.2136C23.6905 12.2302 23.6382 12.259 23.5765 12.2772C23.5144 12.2965 23.4495 12.3053 23.3845 12.3034C23.3511 12.3025 23.3179 12.2982 23.2854 12.2907C23.2687 12.2868 23.2522 12.2821 23.236 12.2765L23.2233 12.2715C23.0228 13.2532 22.7003 14.2061 22.2633 15.1078C22.1369 15.3684 22.0009 15.6244 21.8553 15.8758L21.8589 15.8789L21.8757 15.8923C21.8874 15.9012 21.8997 15.9099 21.9121 15.9185C21.9361 15.9353 21.9635 15.9511 21.9906 15.9665C22.0456 15.9962 22.1029 16.0214 22.162 16.0419C22.2831 16.0829 22.4094 16.1064 22.5371 16.1117C22.6641 16.1191 22.8011 16.1014 22.9369 16.1117C23.0055 16.1153 23.0733 16.1283 23.1383 16.1503C23.2026 16.1727 23.2614 16.2084 23.3109 16.2552C23.2572 16.2162 23.196 16.1891 23.1311 16.1755C23.0672 16.1626 23.0017 16.1587 22.9367 16.164C22.8711 16.1686 22.8058 16.1767 22.7411 16.188C22.6741 16.2008 22.6063 16.2097 22.5383 16.2147C22.3987 16.2242 22.2585 16.2137 22.1219 16.1835C22.0524 16.1679 21.9844 16.1466 21.9184 16.1199C21.885 16.1062 21.8524 16.0911 21.82 16.074C21.8037 16.0656 21.7876 16.0565 21.772 16.0469L21.7595 16.039C21.1217 17.1008 20.3258 18.0594 19.3993 18.8815C19.4097 18.8895 19.4195 18.8979 19.4301 18.9055C19.4705 18.9358 19.5125 18.964 19.5558 18.99C19.6435 19.0427 19.7357 19.0873 19.8313 19.1235C20.0253 19.1968 20.2303 19.2367 20.4376 19.2415C20.6447 19.2485 20.8595 19.2137 21.0765 19.2175C21.1851 19.2176 21.2934 19.2312 21.3988 19.2579C21.5039 19.2848 21.6021 19.3339 21.6868 19.4019C21.5985 19.3423 21.4987 19.302 21.3937 19.2838C21.2896 19.2664 21.1838 19.2621 21.0786 19.2711C20.9733 19.2783 20.8684 19.2951 20.7628 19.3104C20.71 19.3186 20.6567 19.3267 20.6027 19.3344C20.5758 19.338 20.5485 19.3409 20.5211 19.3428C20.4937 19.3447 20.4666 19.3469 20.4393 19.3476C20.2176 19.3575 19.9959 19.3298 19.7836 19.2655C19.6766 19.2332 19.5727 19.1913 19.4733 19.1403C19.4233 19.1146 19.3744 19.0865 19.3269 19.0558C19.3029 19.0404 19.2789 19.0243 19.2565 19.0078C18.8827 19.3294 18.4893 19.6277 18.0786 19.9008L18.0616 19.8946C18.038 19.886 18.014 19.879 17.9896 19.8735C17.8613 19.8443 17.7271 19.8575 17.607 19.9111C17.7009 19.8555 17.7941 19.7983 17.8864 19.7395C18.3916 19.4213 18.8719 19.0651 19.323 18.6739V18.6739C19.3089 18.6576 19.2935 18.6418 19.2805 18.6259L19.2417 18.5758C19.1933 18.5088 19.1502 18.4383 19.1125 18.3648L19.0847 18.3106C19.0753 18.2926 19.0681 18.2739 19.0607 18.2554C19.0449 18.2184 19.0271 18.1834 19.0141 18.1443L18.9724 18.0322L18.9361 17.9155C18.9234 17.8779 18.9143 17.8395 18.9045 17.8013C18.8946 17.7631 18.8845 17.7247 18.8757 17.6866L18.8517 17.5711C18.844 17.5325 18.8353 17.4943 18.8301 17.4555L18.8121 17.3395C18.8061 17.3009 18.8001 17.2625 18.7965 17.2236C18.7885 17.1459 18.7785 17.0688 18.7725 16.9911C18.7485 16.6791 18.7485 16.374 18.7057 16.0711C18.686 15.9197 18.6509 15.7707 18.6009 15.6264C18.5508 15.4811 18.4737 15.3465 18.3738 15.2297C18.4822 15.341 18.5687 15.4718 18.6287 15.6151C18.689 15.7586 18.7346 15.9079 18.7648 16.0606C18.8289 16.3649 18.8495 16.6764 18.8917 16.9776C18.9025 17.053 18.9174 17.1279 18.9299 17.2027C18.9359 17.2404 18.9441 17.2776 18.9525 17.3146L18.9765 17.4257C18.9839 17.4629 18.9949 17.4991 19.0045 17.5356L19.0343 17.6451C19.0451 17.6811 19.0583 17.7171 19.0689 17.7523C19.0794 17.7876 19.0914 17.8243 19.1056 17.8587L19.1459 17.9633L19.1913 18.0648C19.2054 18.0991 19.2239 18.1308 19.2405 18.1637C19.2493 18.1798 19.257 18.1966 19.2664 18.2117L19.2945 18.2585C19.331 18.32 19.3722 18.3786 19.4176 18.4339L19.4521 18.4728C19.4637 18.4858 19.4761 18.4968 19.4879 18.5088C19.491 18.5119 19.4944 18.5148 19.4977 18.5177C20.4098 17.6954 21.1904 16.7381 21.8123 15.6792L21.8049 15.6732C21.7972 15.6667 21.7902 15.6603 21.7833 15.6538C21.7701 15.6411 21.7576 15.6281 21.7461 15.6151C21.7233 15.5897 21.7021 15.5631 21.6825 15.5352C21.6449 15.4819 21.6116 15.4257 21.5826 15.3672C21.527 15.2548 21.4819 15.1375 21.448 15.0168C21.3832 14.7815 21.3422 14.5403 21.3256 14.2968C21.3073 14.0523 21.327 13.8168 21.3076 13.5809C21.2994 13.4635 21.2783 13.3473 21.2445 13.2346C21.2094 13.1213 21.1571 13.014 21.0894 12.9166C21.1662 13.009 21.2282 13.1128 21.2733 13.2243C21.3182 13.3366 21.3504 13.4537 21.3693 13.5732C21.4098 13.8115 21.411 14.0532 21.4485 14.2824C21.4832 14.5132 21.541 14.7398 21.621 14.959C21.6603 15.0658 21.7095 15.1686 21.7681 15.2662C21.7962 15.3125 21.8276 15.3567 21.8622 15.3984C21.8788 15.418 21.8963 15.4366 21.9148 15.4543C21.921 15.4603 21.9273 15.4654 21.9335 15.4707C22.0103 15.3334 22.0845 15.1946 22.156 15.0543C22.6414 14.0991 22.9957 13.0828 23.2093 12.0329L23.2053 12.0411C23.164 12.02 23.127 11.9915 23.0961 11.9571C23.0678 11.9244 23.0442 11.888 23.026 11.8488C22.9943 11.7792 22.9707 11.7063 22.9557 11.6314C22.9275 11.4903 22.9097 11.3474 22.9024 11.2037C22.8935 11.0578 22.9077 10.9186 22.9005 10.7803C22.898 10.7113 22.8878 10.6428 22.87 10.5761C22.8519 10.5086 22.8202 10.4456 22.7769 10.3908C22.8274 10.4413 22.8671 10.5016 22.8935 10.5679C22.9198 10.6346 22.9387 10.704 22.9497 10.7748C22.9737 10.9159 22.9765 11.059 23.0005 11.1922C23.0229 11.3279 23.055 11.4618 23.0965 11.593C23.116 11.6543 23.1422 11.7132 23.1748 11.7687C23.1889 11.792 23.2062 11.8132 23.2261 11.8318C23.2323 11.8371 23.2388 11.842 23.2456 11.8464C23.2837 11.6415 23.3176 11.4355 23.3442 11.2287C23.3634 11.0955 23.3764 10.9618 23.3922 10.8281C23.3997 10.7614 23.4037 10.6942 23.4097 10.6272C23.4157 10.5603 23.4217 10.4933 23.4249 10.4261C23.4596 9.8888 23.459 9.3498 23.4232 8.81258C23.4689 9.34972 23.4795 9.88926 23.4549 10.4278C23.4529 10.4952 23.4474 10.5624 23.4436 10.6296C23.4397 10.6968 23.4359 10.7643 23.4297 10.8315C23.4172 10.9659 23.4069 11.1003 23.3901 11.2342C23.361 11.5025 23.3181 11.7691 23.272 12.0348C23.2638 12.0787 23.2552 12.1227 23.2468 12.1666L23.2549 12.1543C23.2563 12.1559 23.2579 12.1572 23.2597 12.1582L23.2672 12.1632C23.2722 12.1666 23.278 12.1695 23.2833 12.1726C23.2948 12.1787 23.3066 12.1843 23.3188 12.1891C23.3439 12.1991 23.3699 12.2067 23.3965 12.2117C23.452 12.2219 23.5088 12.2228 23.5645 12.2143C23.6205 12.2076 23.6802 12.1889 23.7421 12.1817C23.8037 12.1708 23.8672 12.1815 23.9219 12.2119C23.8651 12.1917 23.8031 12.1923 23.7467 12.2136V12.2136Z" fill="#0F9E6D"/>
<path d="M2.81045 10.6061C2.60477 10.5732 2.46581 10.6975 2.43461 10.8941L2.38037 11.2351L3.02069 11.3369L3.07517 10.9951C3.10637 10.7993 3.01613 10.6387 2.81045 10.6061Z" fill="#0F9E6D"/>
<path d="M12.6126 3.10999C12.6174 2.88151 12.4717 2.76775 12.2737 2.76367L11.9377 2.75671L11.9238 3.43207L12.2598 3.43879C12.4581 3.44287 12.6081 3.33847 12.6126 3.10999Z" fill="#0F9E6D"/>
<path d="M16.4717 4.21284C16.5641 4.02588 16.4866 3.85644 16.3088 3.76884L15.9984 3.61548L15.7104 4.197L16.0208 4.35012C16.2001 4.43796 16.3796 4.39956 16.4717 4.21284Z" fill="#0F9E6D"/>
<path d="M6.40248 17.546C6.6569 17.3412 6.92408 17.1528 7.2024 16.982C6.04279 15.7581 5.39756 14.1356 5.4 12.4496C5.4 8.80471 8.35488 5.84959 12 5.84959C15.6451 5.84959 18.6 8.80471 18.6 12.4496C18.6001 12.7678 18.5773 13.0857 18.5318 13.4007C20.501 11.9324 22.0452 9.89095 22.9418 7.51543C21.0602 3.34902 16.8686 0.449585 12 0.449585C5.3724 0.449585 0 5.82222 0 12.4496C0 15.9161 1.46976 19.0395 3.82032 21.23C3.97714 20.7748 4.17382 20.3342 4.40808 19.9136C4.43912 19.8577 4.47112 19.8023 4.50408 19.7473C4.56104 19.6503 4.61984 19.5549 4.68048 19.4612C4.71056 19.4141 4.7412 19.3676 4.7724 19.3215C4.87656 19.1665 4.98584 19.0157 5.10024 18.8691C5.13672 18.8211 5.17392 18.7753 5.21136 18.7292C5.33936 18.5732 5.472 18.4224 5.60928 18.2768C5.65368 18.2288 5.69904 18.1832 5.74464 18.1371C5.9016 17.9795 6.0648 17.8287 6.23424 17.6847C6.28928 17.6378 6.34536 17.5916 6.40248 17.546ZM17.7545 4.17487L18.8246 5.0319L18.6209 5.2863L16.8929 5.94318L17.6246 6.52927L17.3957 6.81511L16.2996 5.93718L16.5034 5.68279L18.2201 5.01727L17.5241 4.46071L17.7545 4.17487ZM16.4738 3.4419C16.8624 3.6339 17.0258 3.98455 16.8449 4.35223C16.6992 4.64743 16.4369 4.72831 16.1882 4.68007C16.3802 4.92847 16.387 5.37031 16.2182 5.86399L15.864 5.6883C16.0193 5.16918 15.966 4.73071 15.707 4.60279L15.5503 4.52527L15.1488 5.33574L14.8054 5.16607L15.8172 3.11743L16.4738 3.4419ZM13.7738 2.5323L15.0024 2.82702L14.917 3.18294L14.0609 2.97774L13.9248 3.54558L14.7156 3.73518L14.6302 4.09135L13.8382 3.90174L13.6978 4.48638L14.5538 4.69182L14.4684 5.04799L13.2401 4.75327L13.7738 2.5323ZM11.5622 2.38279L12.2878 2.39766C12.7212 2.40654 13.0181 2.67462 13.0078 3.11766C12.9986 3.55758 12.691 3.81366 12.2578 3.80454L11.915 3.79758L11.897 4.6743L11.5142 4.66663L11.5622 2.38279ZM10.7386 2.47062L11.0664 4.73166L10.6872 4.78663L10.3598 2.52558L10.7386 2.47062ZM7.07016 3.60846L8.17824 5.09407L8.088 3.46711L7.91568 3.25519L8.27232 3.10615L9.46104 4.5579L9.18504 2.72574L9.58176 2.5599L9.87288 4.91358L9.48 5.07871L8.46288 3.87223L8.5404 5.4711L8.14344 5.63671L6.67416 3.7743L7.07016 3.60846ZM4.81416 5.38735L6.75936 5.81935L5.67384 4.61358L5.95848 4.35702L7.488 6.0543L7.20336 6.31087L5.41488 5.93238L6.40464 7.03087L6.12 7.28718L4.7724 5.79199L4.49568 5.7159L4.47552 5.69335L4.81416 5.38735ZM3.25248 14.4958C2.58768 14.5661 2.02848 14.1253 1.95456 13.4369C1.92888 13.1931 1.95456 12.9673 2.00952 12.8062L2.42712 12.7621C2.34274 12.9623 2.31118 13.1809 2.33544 13.3969C2.38344 13.8545 2.75664 14.1529 3.2112 14.1049C3.6432 14.0593 3.96984 13.7072 3.92352 13.2694C3.87864 12.8451 3.55704 12.6154 3.22752 12.6505C3.20067 12.6528 3.17399 12.6567 3.1476 12.6622L3.22152 13.3606L2.87736 13.3971L2.76 12.3077C2.86195 12.2783 2.96639 12.2582 3.072 12.2477C3.6768 12.1839 4.23 12.5273 4.30536 13.2392C4.3752 13.8973 3.912 14.4262 3.25248 14.4958ZM4.4004 10.7501C3.85848 10.7557 3.45552 10.9366 3.41016 11.222L3.384 11.3936L4.27536 11.5376L4.21512 11.9161L1.95912 11.5561L2.07432 10.8327C2.14224 10.4048 2.4288 10.1441 2.83344 10.2087C3.15864 10.2603 3.31344 10.4857 3.34128 10.7386C3.52176 10.4813 3.94128 10.3441 4.46304 10.3589L4.4004 10.7501ZM4.56192 10.1144L2.4408 9.26502L2.91048 8.09215L3.25032 8.22822L2.9232 9.04567L3.46584 9.26287L3.768 8.50806L4.10784 8.64415L3.80592 9.39918L4.36416 9.62262L4.69152 8.80662L5.0316 8.94271L4.56192 10.1144ZM5.208 8.62446L3.3096 7.35246L4.0128 6.30271L4.31688 6.50646L3.82704 7.23799L4.3128 7.56343L4.76544 6.88783L5.06952 7.09159L4.61712 7.76718L5.1168 8.10174L5.60664 7.37046L5.91096 7.57422L5.208 8.62446Z" fill="#0F9E6D"/>
</g>
<path d="M32.1788 16.5549C31.2828 16.5549 30.5224 16.3855 29.8974 16.0467C29.28 15.7079 28.8094 15.2335 28.4856 14.6236C28.1619 14.0138 28 13.2985 28 12.4778C28 11.6345 28.1656 10.9041 28.4969 10.2867C28.8358 9.66929 29.3214 9.19117 29.9539 8.85235C30.5864 8.51353 31.3468 8.34412 32.2353 8.34412C32.7925 8.34412 33.3195 8.42317 33.8165 8.58129C34.3209 8.73941 34.7313 8.95023 35.0475 9.21376L34.4828 10.5804C34.1365 10.3244 33.7826 10.1436 33.4212 10.0382C33.0598 9.92529 32.6682 9.86882 32.2466 9.86882C31.4409 9.86882 30.8348 10.0947 30.4282 10.5465C30.0292 10.9907 29.8296 11.6345 29.8296 12.4778C29.8296 13.3286 30.0329 13.9724 30.4395 14.4091C30.8536 14.8458 31.4635 15.0641 32.2692 15.0641C32.6984 15.0641 33.1501 14.9964 33.6245 14.8608V13.3022H31.9078V12.0373H35.0701V15.9451C34.6786 16.1408 34.2268 16.2914 33.7148 16.3968C33.2028 16.5022 32.6908 16.5549 32.1788 16.5549Z" fill="#009F70"/>
<path d="M37.1842 16.4307V8.46835H40.8209C41.7094 8.46835 42.3946 8.68294 42.8765 9.11212C43.3584 9.54129 43.5993 10.1399 43.5993 10.9079C43.5993 11.5027 43.4449 11.9996 43.1362 12.3987C42.8351 12.7902 42.4021 13.0575 41.8374 13.2006C42.2365 13.3211 42.564 13.6109 42.82 14.0702L44.1075 16.4307H42.1762L40.7984 13.8895C40.6854 13.6862 40.5461 13.5469 40.3805 13.4716C40.2148 13.3888 40.0191 13.3474 39.7932 13.3474H38.9348V16.4307H37.1842ZM38.9348 12.0825H40.5047C41.4459 12.0825 41.9165 11.706 41.9165 10.9531C41.9165 10.2076 41.4459 9.83494 40.5047 9.83494H38.9348V12.0825Z" fill="#009F70"/>
<path d="M45.6129 16.4307V8.46835H51.068V9.83494H47.2844V11.6985H50.8195V13.0764H47.2844V15.0641H51.068V16.4307H45.6129Z" fill="#009F70"/>
<path d="M53.0159 16.4307V8.46835H58.4709V9.83494H54.6874V11.6985H58.2224V13.0764H54.6874V15.0641H58.4709V16.4307H53.0159Z" fill="#009F70"/>
<path d="M60.4188 16.4307V8.46835H61.7176L65.6931 13.5394V8.46835H67.3195V16.4307H66.032L62.0451 11.3484V16.4307H60.4188Z" fill="#009F70"/>
<path d="M71.7121 16.4307L68.8773 8.46835H70.6731L72.5027 13.9121L74.434 8.46835H75.6989L77.5738 14.0025L79.4712 8.46835H81.1653L78.3079 16.4307H76.8848L75.0213 11.1451L73.1352 16.4307H71.7121Z" fill="#009F70"/>
<path d="M82.7026 16.4307V8.46835H84.4532V16.4307H82.7026Z" fill="#009F70"/>
<path d="M86.6092 16.4307V8.46835H90.2459C91.1344 8.46835 91.8196 8.69423 92.3015 9.146C92.7834 9.59023 93.0243 10.2114 93.0243 11.0095C93.0243 11.8076 92.7834 12.4326 92.3015 12.8844C91.8196 13.3361 91.1344 13.562 90.2459 13.562H88.3598V16.4307H86.6092ZM88.3598 12.2067H89.9523C90.8784 12.2067 91.3415 11.8076 91.3415 11.0095C91.3415 10.2265 90.8784 9.83494 89.9523 9.83494H88.3598V12.2067Z" fill="#009F70"/>
<path d="M94.6739 16.4307V8.46835H100.129V9.83494H96.3455V11.6985H99.8805V13.0764H96.3455V15.0641H100.129V16.4307H94.6739Z" fill="#009F70"/>
<path d="M102.077 16.4307V8.46835H105.714C106.602 8.46835 107.287 8.68294 107.769 9.11212C108.251 9.54129 108.492 10.1399 108.492 10.9079C108.492 11.5027 108.338 11.9996 108.029 12.3987C107.728 12.7902 107.295 13.0575 106.73 13.2006C107.129 13.3211 107.457 13.6109 107.713 14.0702L109 16.4307H107.069L105.691 13.8895C105.578 13.6862 105.439 13.5469 105.273 13.4716C105.107 13.3888 104.912 13.3474 104.686 13.3474H103.827V16.4307H102.077ZM103.827 12.0825H105.397C106.339 12.0825 106.809 11.706 106.809 10.9531C106.809 10.2076 106.339 9.83494 105.397 9.83494H103.827V12.0825Z" fill="#009F70"/>
<path d="M110.19 16.4307V15.1432L114.166 9.92529H110.19V8.46835H116.21V9.75588L112.223 14.9738H116.379V16.4307H110.19Z" fill="#009F70"/>
<defs>
<clipPath id="clip0_114_1681">
<rect width="24" height="24" fill="white" transform="translate(0 0.449585)"/>
</clipPath>
</defs>
</svg>
