<svg width="150" height="25" viewBox="0 0 150 25" fill="none" xmlns="http://www.w3.org/2000/svg">
<path d="M13.134 18.3555C14.1563 18.3555 14.9568 18.0324 15.5354 17.3862C16.1141 16.7304 16.4034 15.819 16.4034 14.652C16.4034 13.4368 16.1285 12.5254 15.5788 11.9178C15.0291 11.3006 14.2141 10.992 13.134 10.992C12.0827 10.992 11.2774 11.2958 10.7181 11.9034C10.1587 12.511 9.87899 13.3886 9.87899 14.5363C9.87899 15.7708 10.1587 16.7159 10.7181 17.3717C11.2871 18.0275 12.0924 18.3555 13.134 18.3555ZM12.7868 24.3157C8.56254 24.3157 5.38954 23.4766 3.26778 21.7985C1.15567 20.1204 0.0996094 17.5936 0.0996094 14.218C0.0996094 10.8907 1.15085 8.44587 3.25332 6.88349C5.36543 5.31145 8.65898 4.52544 13.134 4.52544C17.6572 4.52544 20.9604 5.31145 23.0436 6.88349C25.1267 8.45552 26.1683 10.9389 26.1683 14.3338C26.1683 17.7286 25.0785 20.2409 22.8989 21.8708C20.7193 23.5007 17.3486 24.3157 12.7868 24.3157Z" fill="black"/>
<path d="M40.7361 18.3555C41.7584 18.3555 42.5589 18.0324 43.1376 17.3862C43.7162 16.7304 44.0056 15.819 44.0056 14.652C44.0056 13.4368 43.7307 12.5254 43.181 11.9178C42.6313 11.3006 41.8163 10.992 40.7361 10.992C39.6849 10.992 38.8796 11.2958 38.3202 11.9034C37.7609 12.511 37.4812 13.3886 37.4812 14.5363C37.4812 15.7708 37.7609 16.7159 38.3202 17.3717C38.8892 18.0275 39.6945 18.3555 40.7361 18.3555ZM40.3889 24.3157C36.1647 24.3157 32.9917 23.4766 30.87 21.7985C28.7578 20.1204 27.7018 17.5936 27.7018 14.218C27.7018 10.8907 28.753 8.44587 30.8555 6.88349C32.9676 5.31145 36.2612 4.52544 40.7361 4.52544C45.2593 4.52544 48.5625 5.31145 50.6457 6.88349C52.7289 8.45552 53.7705 10.9389 53.7705 14.3338C53.7705 17.7286 52.6807 20.2409 50.5011 21.8708C48.3214 23.5007 44.9507 24.3157 40.3889 24.3157Z" fill="black"/>
<path d="M68.3383 18.3555C69.3606 18.3555 70.1611 18.0324 70.7398 17.3862C71.3184 16.7304 71.6077 15.819 71.6077 14.652C71.6077 13.4368 71.3329 12.5254 70.7832 11.9178C70.2334 11.3006 69.4185 10.992 68.3383 10.992C67.2871 10.992 66.4818 11.2958 65.9224 11.9034C65.363 12.511 65.0833 13.3886 65.0833 14.5363C65.0833 15.7708 65.363 16.7159 65.9224 17.3717C66.4914 18.0275 67.2967 18.3555 68.3383 18.3555ZM67.9911 24.3157C63.7669 24.3157 60.5939 23.4766 58.4721 21.7985C56.36 20.1204 55.304 17.5936 55.304 14.218C55.304 10.8907 56.3552 8.44587 58.4577 6.88349C60.5698 5.31145 63.8633 4.52544 68.3383 4.52544C72.8615 4.52544 76.1647 5.31145 78.2479 6.88349C80.3311 8.45552 81.3727 10.9389 81.3727 14.3338C81.3727 17.7286 80.2829 20.2409 78.1032 21.8708C75.9236 23.5007 72.5529 24.3157 67.9911 24.3157Z" fill="black"/>
<path d="M85.1629 23.6357V16.3446H82.7036V9.05347H85.1629V5.91423C85.1629 3.85033 85.9345 2.40368 87.4776 1.57426C89.0206 0.735204 91.8127 0.315674 95.8537 0.315674C96.8278 0.315674 97.8501 0.354251 98.9206 0.431406C99.9911 0.498917 101.134 0.609827 102.349 0.764137L102.335 6.50736C101.669 6.43984 101.047 6.39162 100.469 6.36269C99.8898 6.32411 99.3691 6.30482 98.9061 6.30482C97.826 6.30482 97.0544 6.43984 96.5915 6.70989C96.1382 6.97028 95.9115 7.4091 95.9115 8.02634V9.05347H102.349V16.3446H95.9115V23.6357H85.1629Z" fill="black"/>
<path d="M114.472 12.1927H120.751V11.9902C120.751 11.1029 120.485 10.4133 119.955 9.92146C119.425 9.4296 118.682 9.18367 117.727 9.18367C116.734 9.18367 115.948 9.45371 115.369 9.99379C114.79 10.5242 114.491 11.2572 114.472 12.1927ZM127.087 22.869C125.081 23.3512 123.133 23.7129 121.242 23.954C119.352 24.1951 117.52 24.3157 115.745 24.3157C111.723 24.3157 108.705 23.52 106.689 21.9287C104.683 20.3374 103.68 17.9552 103.68 14.7822C103.68 11.291 104.784 8.71109 106.993 7.04262C109.201 5.3645 112.611 4.52544 117.221 4.52544C121.619 4.52544 124.767 5.3211 126.667 6.91242C128.567 8.50374 129.517 11.1077 129.517 14.7244C129.517 15.0619 129.498 15.5923 129.459 16.3157V16.4025H114.819V16.4603C114.819 17.3476 115.157 17.9841 115.832 18.3699C116.517 18.7557 117.65 18.9486 119.232 18.9486C120.611 18.9486 122.125 18.8329 123.774 18.6014C125.433 18.3699 127.241 18.0227 129.199 17.5598L127.087 22.869Z" fill="black"/>
<path d="M131.904 23.6357V5.0607H141.713V9.44406C142.108 7.68879 142.73 6.4302 143.579 5.6683C144.428 4.90639 145.614 4.52544 147.138 4.52544C147.523 4.52544 148.165 4.61224 149.062 4.78584C149.418 4.85335 149.693 4.90639 149.886 4.94497L149.901 15.1294C149.843 15.1294 149.761 15.1294 149.655 15.1294C148.796 15.0908 148.174 15.0716 147.789 15.0716C145.734 15.0716 144.331 15.3609 143.579 15.9395C142.836 16.5182 142.465 17.5646 142.465 19.0788V23.6357H131.904Z" fill="black"/>
</svg>
